solid Created by Gmsh
facet normal 0.345329 0.910558 -0.227225
  outer loop
    vertex 0.05241073360510647 0.06985417748196109 0.004000000000000001
    vertex 0.05709209774085072 0.06870032485370831 0.00649075132482197
    vertex 0.06136129493462312 0.06645967731787313 0.004000000000000001
  endloop
endfacet
facet normal 0.944343 -0.23276 -0.232465
  outer loop
    vertex 0.07000000000000001 0.05 0.004000000000000001
    vertex 0.06941883634852104 0.04521368671424884 0.006431511630710948
    vertex 0.0677091205130642 0.04070553655912462 0.004000000000000001
  endloop
endfacet
facet normal -0.553205 0.801456 0.227225
  outer loop
    vertex 0.0429079022591493 0.06870032485370831 0.009000000000000001
    vertex 0.03863870506537689 0.06645967731787314 0.006509248675178032
    vertex 0.03502978503657798 0.06326245316481591 0.009000000000000001
  endloop
endfacet
facet normal -0.862294 -0.452567 0.227225
  outer loop
    vertex 0.03058116365147896 0.04521368671424886 0.009000000000000001
    vertex 0.03229087948693581 0.04070553655912462 0.006509248675178031
    vertex 0.03502978503657798 0.03673754683518411 0.009000000000000001
  endloop
endfacet
facet normal 0.728931 -0.645777 0.227225
  outer loop
    vertex 0.06136129493462311 0.03354032268212687 0.009000000000000001
    vertex 0.06497021496342202 0.03673754683518409 0.00650924867517803
    vertex 0.0677091205130642 0.04070553655912462 0.009000000000000001
  endloop
endfacet
facet normal -0.553205 -0.801456 -0.227225
  outer loop
    vertex 0.04290790225914928 0.03129967514629171 0.004000000000000001
    vertex 0.0386387050653769 0.03354032268212687 0.006490751324821971
    vertex 0.03502978503657798 0.03673754683518411 0.004000000000000001
  endloop
endfacet
facet normal 0.345329 -0.910558 0.227225
  outer loop
    vertex 0.05241073360510645 0.03014582251803892 0.009000000000000001
    vertex 0.05709209774085072 0.03129967514629171 0.00650924867517803
    vertex 0.06136129493462311 0.03354032268212687 0.009000000000000001
  endloop
endfacet
facet normal -0.117384 0.966742 0.227225
  outer loop
    vertex 0.05241073360510647 0.06985417748196109 0.009000000000000001
    vertex 0.04758926639489355 0.06985417748196109 0.00650924867517803
    vertex 0.0429079022591493 0.06870032485370831 0.009000000000000001
  endloop
endfacet
facet normal -0.973842 7.05907e-16 -0.227225
  outer loop
    vertex 0.03058116365147896 0.04521368671424886 0.004000000000000001
    vertex 0.03 0.05 0.006490751324821971
    vertex 0.03058116365147897 0.05478631328575116 0.004000000000000001
  endloop
endfacet
facet normal 0.728931 0.645777 0.227225
  outer loop
    vertex 0.0677091205130642 0.05929446344087537 0.009000000000000001
    vertex 0.06497021496342202 0.06326245316481591 0.006509248675178032
    vertex 0.06136129493462312 0.06645967731787313 0.009000000000000001
  endloop
endfacet
facet normal -0.117409 -0.96695 -0.226324
  outer loop
    vertex 0.05241073360510645 0.03014582251803892 0.004000000000000001
    vertex 0.04748417261455055 0.03015886564314876 0.006500000000000001
    vertex 0.04290790225914928 0.03129967514629171 0.004000000000000001
  endloop
endfacet
facet normal 0.945748 0.233106 0.226324
  outer loop
    vertex 0.07000000000000001 0.05 0.009000000000000001
    vertex 0.06944390758279537 0.054683423738219 0.006500000000000001
    vertex 0.0677091205130642 0.05929446344087537 0.009000000000000001
  endloop
endfacet
facet normal -0.86248 0.452665 -0.226324
  outer loop
    vertex 0.03058116365147897 0.05478631328575116 0.004000000000000001
    vertex 0.03234034178887629 0.05938810267659504 0.006500000000000001
    vertex 0.03502978503657798 0.06326245316481591 0.004000000000000001
  endloop
endfacet
facet normal -0.117409 -0.96695 0.226324
  outer loop
    vertex 0.04290790225914928 0.03129967514629171 0.009000000000000001
    vertex 0.04748417261455055 0.03015886564314876 0.006500000000000001
    vertex 0.05241073360510645 0.03014582251803892 0.009000000000000001
  endloop
endfacet
facet normal 0.945748 0.233106 -0.226324
  outer loop
    vertex 0.0677091205130642 0.05929446344087537 0.004000000000000001
    vertex 0.06944390758279537 0.054683423738219 0.006500000000000001
    vertex 0.07000000000000001 0.05 0.004000000000000001
  endloop
endfacet
facet normal -0.86248 0.452665 0.226324
  outer loop
    vertex 0.03502978503657798 0.06326245316481591 0.009000000000000001
    vertex 0.03234034178887629 0.05938810267659504 0.006500000000000001
    vertex 0.03058116365147897 0.05478631328575116 0.009000000000000001
  endloop
endfacet
facet normal 0.729208 -0.646022 -0.225636
  outer loop
    vertex 0.0677091205130642 0.04070553655912462 0.004000000000000001
    vertex 0.06497021496342202 0.03673754683518409 0.00650924867517803
    vertex 0.06136129493462311 0.03354032268212687 0.004000000000000001
  endloop
endfacet
facet normal 0.34546 -0.910904 -0.225636
  outer loop
    vertex 0.06136129493462311 0.03354032268212687 0.004000000000000001
    vertex 0.05709209774085072 0.03129967514629171 0.00650924867517803
    vertex 0.05241073360510645 0.03014582251803892 0.004000000000000001
  endloop
endfacet
facet normal 0.947003 -0.233415 0.220688
  outer loop
    vertex 0.0677091205130642 0.04070553655912462 0.009000000000000001
    vertex 0.06941883634852104 0.04521368671424884 0.006431511630710948
    vertex 0.07000000000000001 0.05 0.009000000000000001
  endloop
endfacet
facet normal -0.553415 0.801761 -0.225636
  outer loop
    vertex 0.03502978503657798 0.06326245316481591 0.004000000000000001
    vertex 0.03863870506537689 0.06645967731787314 0.006509248675178032
    vertex 0.0429079022591493 0.06870032485370831 0.004000000000000001
  endloop
endfacet
facet normal -0.862622 -0.452739 -0.225636
  outer loop
    vertex 0.03502978503657798 0.03673754683518411 0.004000000000000001
    vertex 0.03229087948693581 0.04070553655912462 0.006509248675178031
    vertex 0.03058116365147896 0.04521368671424886 0.004000000000000001
  endloop
endfacet
facet normal -0.117428 0.967109 -0.225636
  outer loop
    vertex 0.0429079022591493 0.06870032485370831 0.004000000000000001
    vertex 0.04758926639489355 0.06985417748196109 0.00650924867517803
    vertex 0.05241073360510647 0.06985417748196109 0.004000000000000001
  endloop
endfacet
facet normal 0.729208 0.646022 -0.225636
  outer loop
    vertex 0.06136129493462312 0.06645967731787313 0.004000000000000001
    vertex 0.06497021496342202 0.06326245316481591 0.006509248675178032
    vertex 0.0677091205130642 0.05929446344087537 0.004000000000000001
  endloop
endfacet
facet normal -0.553415 -0.801761 0.225636
  outer loop
    vertex 0.03502978503657798 0.03673754683518411 0.009000000000000001
    vertex 0.0386387050653769 0.03354032268212687 0.006490751324821971
    vertex 0.04290790225914928 0.03129967514629171 0.009000000000000001
  endloop
endfacet
facet normal 0.34546 0.910904 0.225636
  outer loop
    vertex 0.06136129493462312 0.06645967731787313 0.009000000000000001
    vertex 0.05709209774085072 0.06870032485370831 0.00649075132482197
    vertex 0.05241073360510647 0.06985417748196109 0.009000000000000001
  endloop
endfacet
facet normal -0.974212 7.06175e-16 0.225636
  outer loop
    vertex 0.03058116365147897 0.05478631328575116 0.009000000000000001
    vertex 0.03 0.05 0.006490751324821971
    vertex 0.03058116365147896 0.04521368671424886 0.009000000000000001
  endloop
endfacet
facet normal -0.934074 0.357079 0
  outer loop
    vertex 0.03058116365147897 0.05478631328575116 0.009000000000000001
    vertex 0.03234034178887629 0.05938810267659504 0.006500000000000001
    vertex 0.03058116365147897 0.05478631328575116 0.004000000000000001
  endloop
endfacet
facet normal -0.0026475 -0.999996 -0
  outer loop
    vertex 0.05241073360510645 0.03014582251803892 0.009000000000000001
    vertex 0.04748417261455055 0.03015886564314876 0.006500000000000001
    vertex 0.05241073360510645 0.03014582251803892 0.004000000000000001
  endloop
endfacet
facet normal 0.935952 0.352128 0
  outer loop
    vertex 0.0677091205130642 0.05929446344087537 0.009000000000000001
    vertex 0.06944390758279537 0.054683423738219 0.006500000000000001
    vertex 0.0677091205130642 0.05929446344087537 0.004000000000000001
  endloop
endfacet
facet normal -0.464723 0.885456 0
  outer loop
    vertex 0.0429079022591493 0.06870032485370831 0.004000000000000001
    vertex 0.03863870506537689 0.06645967731787314 0.006509248675178032
    vertex 0.0429079022591493 0.06870032485370831 0.009000000000000001
  endloop
endfacet
facet normal 0.239316 -0.970942 0
  outer loop
    vertex 0.05241073360510645 0.03014582251803892 0.004000000000000001
    vertex 0.05709209774085072 0.03129967514629171 0.00650924867517803
    vertex 0.05241073360510645 0.03014582251803892 0.009000000000000001
  endloop
endfacet
facet normal 0.663123 -0.748511 0
  outer loop
    vertex 0.06136129493462311 0.03354032268212687 0.004000000000000001
    vertex 0.06497021496342202 0.03673754683518409 0.00650924867517803
    vertex 0.06136129493462311 0.03354032268212687 0.009000000000000001
  endloop
endfacet
facet normal -0.935016 -0.354605 0
  outer loop
    vertex 0.03058116365147896 0.04521368671424886 0.004000000000000001
    vertex 0.03229087948693581 0.04070553655912462 0.006509248675178031
    vertex 0.03058116365147896 0.04521368671424886 0.009000000000000001
  endloop
endfacet
facet normal -0.464723 -0.885456 -0
  outer loop
    vertex 0.04290790225914928 0.03129967514629171 0.009000000000000001
    vertex 0.0386387050653769 0.03354032268212687 0.006490751324821971
    vertex 0.04290790225914928 0.03129967514629171 0.004000000000000001
  endloop
endfacet
facet normal 0.935016 -0.354605 0
  outer loop
    vertex 0.0677091205130642 0.04070553655912462 0.004000000000000001
    vertex 0.06941883634852104 0.04521368671424884 0.006431511630710948
    vertex 0.0677091205130642 0.04070553655912462 0.009000000000000001
  endloop
endfacet
facet normal 0.239316 0.970942 0
  outer loop
    vertex 0.05241073360510647 0.06985417748196109 0.009000000000000001
    vertex 0.05709209774085072 0.06870032485370831 0.00649075132482197
    vertex 0.05241073360510647 0.06985417748196109 0.004000000000000001
  endloop
endfacet
facet normal 0.992709 -0.120537 0
  outer loop
    vertex 0.07000000000000001 0.05 0.009000000000000001
    vertex 0.06941883634852104 0.04521368671424884 0.006431511630710948
    vertex 0.07000000000000001 0.05 0.004000000000000001
  endloop
endfacet
facet normal -0.992709 0.120537 0
  outer loop
    vertex 0.03058116365147897 0.05478631328575116 0.004000000000000001
    vertex 0.03 0.05 0.006490751324821971
    vertex 0.03058116365147897 0.05478631328575116 0.009000000000000001
  endloop
endfacet
facet normal -0.663123 -0.748511 0
  outer loop
    vertex 0.03502978503657798 0.03673754683518411 0.004000000000000001
    vertex 0.0386387050653769 0.03354032268212687 0.006490751324821971
    vertex 0.03502978503657798 0.03673754683518411 0.009000000000000001
  endloop
endfacet
facet normal 0.822984 0.568065 -0
  outer loop
    vertex 0.0677091205130642 0.05929446344087537 0.004000000000000001
    vertex 0.06497021496342202 0.06326245316481591 0.006509248675178032
    vertex 0.0677091205130642 0.05929446344087537 0.009000000000000001
  endloop
endfacet
facet normal 0 1 -0
  outer loop
    vertex 0.05241073360510647 0.06985417748196109 0.004000000000000001
    vertex 0.04758926639489355 0.06985417748196109 0.00650924867517803
    vertex 0.05241073360510647 0.06985417748196109 0.009000000000000001
  endloop
endfacet
facet normal -0.822984 -0.568065 -0
  outer loop
    vertex 0.03502978503657798 0.03673754683518411 0.009000000000000001
    vertex 0.03229087948693581 0.04070553655912462 0.006509248675178031
    vertex 0.03502978503657798 0.03673754683518411 0.004000000000000001
  endloop
endfacet
facet normal 0.663123 0.748511 0
  outer loop
    vertex 0.06136129493462312 0.06645967731787313 0.009000000000000001
    vertex 0.06497021496342202 0.06326245316481591 0.006509248675178032
    vertex 0.06136129493462312 0.06645967731787313 0.004000000000000001
  endloop
endfacet
facet normal -0.239316 0.970942 0
  outer loop
    vertex 0.0429079022591493 0.06870032485370831 0.009000000000000001
    vertex 0.04758926639489355 0.06985417748196109 0.00650924867517803
    vertex 0.0429079022591493 0.06870032485370831 0.004000000000000001
  endloop
endfacet
facet normal 0.464723 0.885456 -0
  outer loop
    vertex 0.06136129493462312 0.06645967731787313 0.004000000000000001
    vertex 0.05709209774085072 0.06870032485370831 0.00649075132482197
    vertex 0.06136129493462312 0.06645967731787313 0.009000000000000001
  endloop
endfacet
facet normal -0.992709 -0.120537 -0
  outer loop
    vertex 0.03058116365147896 0.04521368671424886 0.009000000000000001
    vertex 0.03 0.05 0.006490751324821971
    vertex 0.03058116365147896 0.04521368671424886 0.004000000000000001
  endloop
endfacet
facet normal 0.822984 -0.568065 0
  outer loop
    vertex 0.0677091205130642 0.04070553655912462 0.009000000000000001
    vertex 0.06497021496342202 0.03673754683518409 0.00650924867517803
    vertex 0.0677091205130642 0.04070553655912462 0.004000000000000001
  endloop
endfacet
facet normal -0.663123 0.748511 0
  outer loop
    vertex 0.03502978503657798 0.06326245316481591 0.009000000000000001
    vertex 0.03863870506537689 0.06645967731787314 0.006509248675178032
    vertex 0.03502978503657798 0.06326245316481591 0.004000000000000001
  endloop
endfacet
facet normal 0.464723 -0.885456 0
  outer loop
    vertex 0.06136129493462311 0.03354032268212687 0.009000000000000001
    vertex 0.05709209774085072 0.03129967514629171 0.00650924867517803
    vertex 0.06136129493462311 0.03354032268212687 0.004000000000000001
  endloop
endfacet
facet normal 0.993025 0.117908 -0
  outer loop
    vertex 0.07000000000000001 0.05 0.004000000000000001
    vertex 0.06944390758279537 0.054683423738219 0.006500000000000001
    vertex 0.07000000000000001 0.05 0.009000000000000001
  endloop
endfacet
facet normal -0.821477 0.570242 0
  outer loop
    vertex 0.03502978503657798 0.06326245316481591 0.004000000000000001
    vertex 0.03234034178887629 0.05938810267659504 0.006500000000000001
    vertex 0.03502978503657798 0.06326245316481591 0.009000000000000001
  endloop
endfacet
facet normal -0.241885 -0.970305 0
  outer loop
    vertex 0.04290790225914928 0.03129967514629171 0.004000000000000001
    vertex 0.04748417261455055 0.03015886564314876 0.006500000000000001
    vertex 0.04290790225914928 0.03129967514629171 0.009000000000000001
  endloop
endfacet
facet normal -0 0 1
  outer loop
    vertex 0.03058116365147897 0.05478631328575116 0.009000000000000001
    vertex 0.03739372561281674 0.04672995546761033 0.009000000000000001
    vertex 0.0401460268053289 0.05517176409396907 0.009000000000000001
  endloop
endfacet
facet normal 0 0 1
  outer loop
    vertex 0.03058116365147896 0.04521368671424886 0.009000000000000001
    vertex 0.03739372561281674 0.04672995546761033 0.009000000000000001
    vertex 0.03058116365147897 0.05478631328575116 0.009000000000000001
  endloop
endfacet
facet normal 0 0 1
  outer loop
    vertex 0.04290790225914928 0.03129967514629171 0.009000000000000001
    vertex 0.05222881544996211 0.0378737380774369 0.009000000000000001
    vertex 0.04366006028345837 0.04071968826003224 0.009000000000000001
  endloop
endfacet
facet normal 0 0 1
  outer loop
    vertex 0.05241073360510645 0.03014582251803892 0.009000000000000001
    vertex 0.05222881544996211 0.0378737380774369 0.009000000000000001
    vertex 0.04290790225914928 0.03129967514629171 0.009000000000000001
  endloop
endfacet
facet normal -0 0 1
  outer loop
    vertex 0.0401460268053289 0.05517176409396907 0.009000000000000001
    vertex 0.04981557804778723 0.05287629459706867 0.009000000000000001
    vertex 0.04865858362041824 0.06104755781435671 0.009000000000000001
  endloop
endfacet
facet normal 0 0 1
  outer loop
    vertex 0.0677091205130642 0.04070553655912462 0.009000000000000001
    vertex 0.05888424003293126 0.04234758750214043 0.009000000000000001
    vertex 0.06136129493462311 0.03354032268212687 0.009000000000000001
  endloop
endfacet
facet normal -0 0 1
  outer loop
    vertex 0.0429079022591493 0.06870032485370831 0.009000000000000001
    vertex 0.04865858362041824 0.06104755781435671 0.009000000000000001
    vertex 0.05241073360510647 0.06985417748196109 0.009000000000000001
  endloop
endfacet
facet normal 0 0 1
  outer loop
    vertex 0.06136129493462312 0.06645967731787313 0.009000000000000001
    vertex 0.05832995048281481 0.05737969216965163 0.009000000000000001
    vertex 0.0677091205130642 0.05929446344087537 0.009000000000000001
  endloop
endfacet
facet normal 0 -0 1
  outer loop
    vertex 0.04290790225914928 0.03129967514629171 0.009000000000000001
    vertex 0.04366006028345837 0.04071968826003224 0.009000000000000001
    vertex 0.03502978503657798 0.03673754683518411 0.009000000000000001
  endloop
endfacet
facet normal 0 0 1
  outer loop
    vertex 0.03058116365147897 0.05478631328575116 0.009000000000000001
    vertex 0.0401460268053289 0.05517176409396907 0.009000000000000001
    vertex 0.03502978503657798 0.06326245316481591 0.009000000000000001
  endloop
endfacet
facet normal 0 0 1
  outer loop
    vertex 0.0401460268053289 0.05517176409396907 0.009000000000000001
    vertex 0.03739372561281674 0.04672995546761033 0.009000000000000001
    vertex 0.04436415424857724 0.04775073361647653 0.009000000000000001
  endloop
endfacet
facet normal 0 0 1
  outer loop
    vertex 0.05888424003293126 0.04234758750214043 0.009000000000000001
    vertex 0.05222881544996211 0.0378737380774369 0.009000000000000001
    vertex 0.06136129493462311 0.03354032268212687 0.009000000000000001
  endloop
endfacet
facet normal 0 0 1
  outer loop
    vertex 0.06136129493462311 0.03354032268212687 0.009000000000000001
    vertex 0.05222881544996211 0.0378737380774369 0.009000000000000001
    vertex 0.05241073360510645 0.03014582251803892 0.009000000000000001
  endloop
endfacet
facet normal 0 0 1
  outer loop
    vertex 0.04865858362041824 0.06104755781435671 0.009000000000000001
    vertex 0.04981557804778723 0.05287629459706867 0.009000000000000001
    vertex 0.05832995048281481 0.05737969216965163 0.009000000000000001
  endloop
endfacet
facet normal 0 0 1
  outer loop
    vertex 0.0401460268053289 0.05517176409396907 0.009000000000000001
    vertex 0.04436415424857724 0.04775073361647653 0.009000000000000001
    vertex 0.04981557804778723 0.05287629459706867 0.009000000000000001
  endloop
endfacet
facet normal 0 0 1
  outer loop
    vertex 0.05832995048281481 0.05737969216965163 0.009000000000000001
    vertex 0.05519014066074066 0.06368527619596064 0.009000000000000001
    vertex 0.04865858362041824 0.06104755781435671 0.009000000000000001
  endloop
endfacet
facet normal 0 0 1
  outer loop
    vertex 0.04865858362041824 0.06104755781435671 0.009000000000000001
    vertex 0.0416855744303686 0.0620455249817125 0.009000000000000001
    vertex 0.0401460268053289 0.05517176409396907 0.009000000000000001
  endloop
endfacet
facet normal 0 -0 1
  outer loop
    vertex 0.03502978503657798 0.03673754683518411 0.009000000000000001
    vertex 0.03739372561281674 0.04672995546761033 0.009000000000000001
    vertex 0.03058116365147896 0.04521368671424886 0.009000000000000001
  endloop
endfacet
facet normal 0 0 1
  outer loop
    vertex 0.04366006028345837 0.04071968826003224 0.009000000000000001
    vertex 0.03739372561281674 0.04672995546761033 0.009000000000000001
    vertex 0.03502978503657798 0.03673754683518411 0.009000000000000001
  endloop
endfacet
facet normal -0 0 1
  outer loop
    vertex 0.04366006028345837 0.04071968826003224 0.009000000000000001
    vertex 0.05222881544996211 0.0378737380774369 0.009000000000000001
    vertex 0.05055603614848528 0.04542063031973818 0.009000000000000001
  endloop
endfacet
facet normal -0 0 1
  outer loop
    vertex 0.03502978503657798 0.06326245316481591 0.009000000000000001
    vertex 0.0416855744303686 0.0620455249817125 0.009000000000000001
    vertex 0.0429079022591493 0.06870032485370831 0.009000000000000001
  endloop
endfacet
facet normal 0 0 1
  outer loop
    vertex 0.05241073360510647 0.06985417748196109 0.009000000000000001
    vertex 0.05519014066074066 0.06368527619596064 0.009000000000000001
    vertex 0.06136129493462312 0.06645967731787313 0.009000000000000001
  endloop
endfacet
facet normal 0 0 1
  outer loop
    vertex 0.04865858362041824 0.06104755781435671 0.009000000000000001
    vertex 0.05519014066074066 0.06368527619596064 0.009000000000000001
    vertex 0.05241073360510647 0.06985417748196109 0.009000000000000001
  endloop
endfacet
facet normal 0 0 1
  outer loop
    vertex 0.07000000000000001 0.05 0.009000000000000001
    vertex 0.06401627952744696 0.04654529737441602 0.009000000000000001
    vertex 0.0677091205130642 0.04070553655912462 0.009000000000000001
  endloop
endfacet
facet normal 0 0 1
  outer loop
    vertex 0.0677091205130642 0.04070553655912462 0.009000000000000001
    vertex 0.06401627952744696 0.04654529737441602 0.009000000000000001
    vertex 0.05888424003293126 0.04234758750214043 0.009000000000000001
  endloop
endfacet
facet normal 0 -0 1
  outer loop
    vertex 0.0401460268053289 0.05517176409396907 0.009000000000000001
    vertex 0.0416855744303686 0.0620455249817125 0.009000000000000001
    vertex 0.03502978503657798 0.06326245316481591 0.009000000000000001
  endloop
endfacet
facet normal 0 0 1
  outer loop
    vertex 0.0677091205130642 0.05929446344087537 0.009000000000000001
    vertex 0.06401627952744696 0.05345470262558398 0.009000000000000001
    vertex 0.07000000000000001 0.05 0.009000000000000001
  endloop
endfacet
facet normal -0 0 1
  outer loop
    vertex 0.05832995048281481 0.05737969216965163 0.009000000000000001
    vertex 0.06401627952744696 0.05345470262558398 0.009000000000000001
    vertex 0.0677091205130642 0.05929446344087537 0.009000000000000001
  endloop
endfacet
facet normal 0 0 1
  outer loop
    vertex 0.06136129493462312 0.06645967731787313 0.009000000000000001
    vertex 0.05519014066074066 0.06368527619596064 0.009000000000000001
    vertex 0.05832995048281481 0.05737969216965163 0.009000000000000001
  endloop
endfacet
facet normal 0 0 1
  outer loop
    vertex 0.0429079022591493 0.06870032485370831 0.009000000000000001
    vertex 0.0416855744303686 0.0620455249817125 0.009000000000000001
    vertex 0.04865858362041824 0.06104755781435671 0.009000000000000001
  endloop
endfacet
facet normal 0 0 1
  outer loop
    vertex 0.05832995048281481 0.05737969216965163 0.009000000000000001
    vertex 0.04981557804778723 0.05287629459706867 0.009000000000000001
    vertex 0.05760811838092703 0.0498168748147284 0.009000000000000001
  endloop
endfacet
facet normal 0 0 1
  outer loop
    vertex 0.05760811838092703 0.0498168748147284 0.009000000000000001
    vertex 0.04981557804778723 0.05287629459706867 0.009000000000000001
    vertex 0.05055603614848528 0.04542063031973818 0.009000000000000001
  endloop
endfacet
facet normal 0 0 1
  outer loop
    vertex 0.05760811838092703 0.0498168748147284 0.009000000000000001
    vertex 0.05055603614848528 0.04542063031973818 0.009000000000000001
    vertex 0.05888424003293126 0.04234758750214043 0.009000000000000001
  endloop
endfacet
facet normal 0 0 1
  outer loop
    vertex 0.04981557804778723 0.05287629459706867 0.009000000000000001
    vertex 0.04436415424857724 0.04775073361647653 0.009000000000000001
    vertex 0.05055603614848528 0.04542063031973818 0.009000000000000001
  endloop
endfacet
facet normal 0 0 1
  outer loop
    vertex 0.05055603614848528 0.04542063031973818 0.009000000000000001
    vertex 0.05222881544996211 0.0378737380774369 0.009000000000000001
    vertex 0.05888424003293126 0.04234758750214043 0.009000000000000001
  endloop
endfacet
facet normal 0 0 1
  outer loop
    vertex 0.05055603614848528 0.04542063031973818 0.009000000000000001
    vertex 0.04436415424857724 0.04775073361647653 0.009000000000000001
    vertex 0.04366006028345837 0.04071968826003224 0.009000000000000001
  endloop
endfacet
facet normal 0 -0 1
  outer loop
    vertex 0.06401627952744696 0.04654529737441602 0.009000000000000001
    vertex 0.06401627952744696 0.05345470262558398 0.009000000000000001
    vertex 0.05760811838092703 0.0498168748147284 0.009000000000000001
  endloop
endfacet
facet normal 0 0 1
  outer loop
    vertex 0.05760811838092703 0.0498168748147284 0.009000000000000001
    vertex 0.06401627952744696 0.05345470262558398 0.009000000000000001
    vertex 0.05832995048281481 0.05737969216965163 0.009000000000000001
  endloop
endfacet
facet normal 0 0 1
  outer loop
    vertex 0.06401627952744696 0.04654529737441602 0.009000000000000001
    vertex 0.05760811838092703 0.0498168748147284 0.009000000000000001
    vertex 0.05888424003293126 0.04234758750214043 0.009000000000000001
  endloop
endfacet
facet normal 0 0 1
  outer loop
    vertex 0.04436415424857724 0.04775073361647653 0.009000000000000001
    vertex 0.03739372561281674 0.04672995546761033 0.009000000000000001
    vertex 0.04366006028345837 0.04071968826003224 0.009000000000000001
  endloop
endfacet
facet normal 0 0 1
  outer loop
    vertex 0.07000000000000001 0.05 0.009000000000000001
    vertex 0.06401627952744696 0.05345470262558398 0.009000000000000001
    vertex 0.06401627952744696 0.04654529737441602 0.009000000000000001
  endloop
endfacet
facet normal 0 0 -1
  outer loop
    vertex 0.03058116365147897 0.05478631328575116 0.004000000000000001
    vertex 0.0401460268053289 0.05517176409396907 0.004000000000000001
    vertex 0.03739372561281674 0.04672995546761033 0.004000000000000001
  endloop
endfacet
facet normal 0 0 -1
  outer loop
    vertex 0.03058116365147896 0.04521368671424886 0.004000000000000001
    vertex 0.03058116365147897 0.05478631328575116 0.004000000000000001
    vertex 0.03739372561281674 0.04672995546761033 0.004000000000000001
  endloop
endfacet
facet normal 0 0 -1
  outer loop
    vertex 0.04290790225914928 0.03129967514629171 0.004000000000000001
    vertex 0.04366006028345837 0.04071968826003224 0.004000000000000001
    vertex 0.05222881544996211 0.0378737380774369 0.004000000000000001
  endloop
endfacet
facet normal 0 0 -1
  outer loop
    vertex 0.05241073360510645 0.03014582251803892 0.004000000000000001
    vertex 0.04290790225914928 0.03129967514629171 0.004000000000000001
    vertex 0.05222881544996211 0.0378737380774369 0.004000000000000001
  endloop
endfacet
facet normal 0 0 -1
  outer loop
    vertex 0.0401460268053289 0.05517176409396907 0.004000000000000001
    vertex 0.04865858362041824 0.06104755781435671 0.004000000000000001
    vertex 0.04981557804778723 0.05287629459706867 0.004000000000000001
  endloop
endfacet
facet normal -0 0 -1
  outer loop
    vertex 0.0677091205130642 0.04070553655912462 0.004000000000000001
    vertex 0.06136129493462311 0.03354032268212687 0.004000000000000001
    vertex 0.05888424003293126 0.04234758750214043 0.004000000000000001
  endloop
endfacet
facet normal 0 0 -1
  outer loop
    vertex 0.0429079022591493 0.06870032485370831 0.004000000000000001
    vertex 0.05241073360510647 0.06985417748196109 0.004000000000000001
    vertex 0.04865858362041824 0.06104755781435671 0.004000000000000001
  endloop
endfacet
facet normal 0 -0 -1
  outer loop
    vertex 0.06136129493462312 0.06645967731787313 0.004000000000000001
    vertex 0.0677091205130642 0.05929446344087537 0.004000000000000001
    vertex 0.05832995048281481 0.05737969216965163 0.004000000000000001
  endloop
endfacet
facet normal 0 0 -1
  outer loop
    vertex 0.04290790225914928 0.03129967514629171 0.004000000000000001
    vertex 0.03502978503657798 0.03673754683518411 0.004000000000000001
    vertex 0.04366006028345837 0.04071968826003224 0.004000000000000001
  endloop
endfacet
facet normal 0 0 -1
  outer loop
    vertex 0.03058116365147897 0.05478631328575116 0.004000000000000001
    vertex 0.03502978503657798 0.06326245316481591 0.004000000000000001
    vertex 0.0401460268053289 0.05517176409396907 0.004000000000000001
  endloop
endfacet
facet normal 0 -0 -1
  outer loop
    vertex 0.0401460268053289 0.05517176409396907 0.004000000000000001
    vertex 0.04436415424857724 0.04775073361647653 0.004000000000000001
    vertex 0.03739372561281674 0.04672995546761033 0.004000000000000001
  endloop
endfacet
facet normal 0 -0 -1
  outer loop
    vertex 0.05888424003293126 0.04234758750214043 0.004000000000000001
    vertex 0.06136129493462311 0.03354032268212687 0.004000000000000001
    vertex 0.05222881544996211 0.0378737380774369 0.004000000000000001
  endloop
endfacet
facet normal -0 0 -1
  outer loop
    vertex 0.06136129493462311 0.03354032268212687 0.004000000000000001
    vertex 0.05241073360510645 0.03014582251803892 0.004000000000000001
    vertex 0.05222881544996211 0.0378737380774369 0.004000000000000001
  endloop
endfacet
facet normal 0 0 -1
  outer loop
    vertex 0.04865858362041824 0.06104755781435671 0.004000000000000001
    vertex 0.05832995048281481 0.05737969216965163 0.004000000000000001
    vertex 0.04981557804778723 0.05287629459706867 0.004000000000000001
  endloop
endfacet
facet normal 0 0 -1
  outer loop
    vertex 0.0401460268053289 0.05517176409396907 0.004000000000000001
    vertex 0.04981557804778723 0.05287629459706867 0.004000000000000001
    vertex 0.04436415424857724 0.04775073361647653 0.004000000000000001
  endloop
endfacet
facet normal 0 0 -1
  outer loop
    vertex 0.05832995048281481 0.05737969216965163 0.004000000000000001
    vertex 0.04865858362041824 0.06104755781435671 0.004000000000000001
    vertex 0.05519014066074066 0.06368527619596064 0.004000000000000001
  endloop
endfacet
facet normal -0 0 -1
  outer loop
    vertex 0.04865858362041824 0.06104755781435671 0.004000000000000001
    vertex 0.0401460268053289 0.05517176409396907 0.004000000000000001
    vertex 0.0416855744303686 0.0620455249817125 0.004000000000000001
  endloop
endfacet
facet normal 0 0 -1
  outer loop
    vertex 0.03502978503657798 0.03673754683518411 0.004000000000000001
    vertex 0.03058116365147896 0.04521368671424886 0.004000000000000001
    vertex 0.03739372561281674 0.04672995546761033 0.004000000000000001
  endloop
endfacet
facet normal -0 0 -1
  outer loop
    vertex 0.04366006028345837 0.04071968826003224 0.004000000000000001
    vertex 0.03502978503657798 0.03673754683518411 0.004000000000000001
    vertex 0.03739372561281674 0.04672995546761033 0.004000000000000001
  endloop
endfacet
facet normal 0 0 -1
  outer loop
    vertex 0.04366006028345837 0.04071968826003224 0.004000000000000001
    vertex 0.05055603614848528 0.04542063031973818 0.004000000000000001
    vertex 0.05222881544996211 0.0378737380774369 0.004000000000000001
  endloop
endfacet
facet normal 0 0 -1
  outer loop
    vertex 0.03502978503657798 0.06326245316481591 0.004000000000000001
    vertex 0.0429079022591493 0.06870032485370831 0.004000000000000001
    vertex 0.0416855744303686 0.0620455249817125 0.004000000000000001
  endloop
endfacet
facet normal 0 0 -1
  outer loop
    vertex 0.05241073360510647 0.06985417748196109 0.004000000000000001
    vertex 0.06136129493462312 0.06645967731787313 0.004000000000000001
    vertex 0.05519014066074066 0.06368527619596064 0.004000000000000001
  endloop
endfacet
facet normal 0 0 -1
  outer loop
    vertex 0.04865858362041824 0.06104755781435671 0.004000000000000001
    vertex 0.05241073360510647 0.06985417748196109 0.004000000000000001
    vertex 0.05519014066074066 0.06368527619596064 0.004000000000000001
  endloop
endfacet
facet normal 0 0 -1
  outer loop
    vertex 0.07000000000000001 0.05 0.004000000000000001
    vertex 0.0677091205130642 0.04070553655912462 0.004000000000000001
    vertex 0.06401627952744696 0.04654529737441602 0.004000000000000001
  endloop
endfacet
facet normal 0 0 -1
  outer loop
    vertex 0.0677091205130642 0.04070553655912462 0.004000000000000001
    vertex 0.05888424003293126 0.04234758750214043 0.004000000000000001
    vertex 0.06401627952744696 0.04654529737441602 0.004000000000000001
  endloop
endfacet
facet normal 0 0 -1
  outer loop
    vertex 0.0401460268053289 0.05517176409396907 0.004000000000000001
    vertex 0.03502978503657798 0.06326245316481591 0.004000000000000001
    vertex 0.0416855744303686 0.0620455249817125 0.004000000000000001
  endloop
endfacet
facet normal 0 -0 -1
  outer loop
    vertex 0.0677091205130642 0.05929446344087537 0.004000000000000001
    vertex 0.07000000000000001 0.05 0.004000000000000001
    vertex 0.06401627952744696 0.05345470262558398 0.004000000000000001
  endloop
endfacet
facet normal 0 0 -1
  outer loop
    vertex 0.05832995048281481 0.05737969216965163 0.004000000000000001
    vertex 0.0677091205130642 0.05929446344087537 0.004000000000000001
    vertex 0.06401627952744696 0.05345470262558398 0.004000000000000001
  endloop
endfacet
facet normal 0 0 -1
  outer loop
    vertex 0.06136129493462312 0.06645967731787313 0.004000000000000001
    vertex 0.05832995048281481 0.05737969216965163 0.004000000000000001
    vertex 0.05519014066074066 0.06368527619596064 0.004000000000000001
  endloop
endfacet
facet normal 0 -0 -1
  outer loop
    vertex 0.0429079022591493 0.06870032485370831 0.004000000000000001
    vertex 0.04865858362041824 0.06104755781435671 0.004000000000000001
    vertex 0.0416855744303686 0.0620455249817125 0.004000000000000001
  endloop
endfacet
facet normal 0 0 -1
  outer loop
    vertex 0.05832995048281481 0.05737969216965163 0.004000000000000001
    vertex 0.05760811838092703 0.0498168748147284 0.004000000000000001
    vertex 0.04981557804778723 0.05287629459706867 0.004000000000000001
  endloop
endfacet
facet normal -0 0 -1
  outer loop
    vertex 0.05760811838092703 0.0498168748147284 0.004000000000000001
    vertex 0.05055603614848528 0.04542063031973818 0.004000000000000001
    vertex 0.04981557804778723 0.05287629459706867 0.004000000000000001
  endloop
endfacet
facet normal 0 -0 -1
  outer loop
    vertex 0.05760811838092703 0.0498168748147284 0.004000000000000001
    vertex 0.05888424003293126 0.04234758750214043 0.004000000000000001
    vertex 0.05055603614848528 0.04542063031973818 0.004000000000000001
  endloop
endfacet
facet normal 0 -0 -1
  outer loop
    vertex 0.04981557804778723 0.05287629459706867 0.004000000000000001
    vertex 0.05055603614848528 0.04542063031973818 0.004000000000000001
    vertex 0.04436415424857724 0.04775073361647653 0.004000000000000001
  endloop
endfacet
facet normal 0 0 -1
  outer loop
    vertex 0.05055603614848528 0.04542063031973818 0.004000000000000001
    vertex 0.05888424003293126 0.04234758750214043 0.004000000000000001
    vertex 0.05222881544996211 0.0378737380774369 0.004000000000000001
  endloop
endfacet
facet normal -0 0 -1
  outer loop
    vertex 0.05055603614848528 0.04542063031973818 0.004000000000000001
    vertex 0.04366006028345837 0.04071968826003224 0.004000000000000001
    vertex 0.04436415424857724 0.04775073361647653 0.004000000000000001
  endloop
endfacet
facet normal 0 0 -1
  outer loop
    vertex 0.06401627952744696 0.04654529737441602 0.004000000000000001
    vertex 0.05760811838092703 0.0498168748147284 0.004000000000000001
    vertex 0.06401627952744696 0.05345470262558398 0.004000000000000001
  endloop
endfacet
facet normal 0 0 -1
  outer loop
    vertex 0.05760811838092703 0.0498168748147284 0.004000000000000001
    vertex 0.05832995048281481 0.05737969216965163 0.004000000000000001
    vertex 0.06401627952744696 0.05345470262558398 0.004000000000000001
  endloop
endfacet
facet normal -0 0 -1
  outer loop
    vertex 0.06401627952744696 0.04654529737441602 0.004000000000000001
    vertex 0.05888424003293126 0.04234758750214043 0.004000000000000001
    vertex 0.05760811838092703 0.0498168748147284 0.004000000000000001
  endloop
endfacet
facet normal 0 0 -1
  outer loop
    vertex 0.04436415424857724 0.04775073361647653 0.004000000000000001
    vertex 0.04366006028345837 0.04071968826003224 0.004000000000000001
    vertex 0.03739372561281674 0.04672995546761033 0.004000000000000001
  endloop
endfacet
facet normal -0 0 -1
  outer loop
    vertex 0.07000000000000001 0.05 0.004000000000000001
    vertex 0.06401627952744696 0.04654529737441602 0.004000000000000001
    vertex 0.06401627952744696 0.05345470262558398 0.004000000000000001
  endloop
endfacet
endsolid Created by Gmsh
